<mxfile host="app.diagrams.net" modified="2023-08-07T08:43:57.392Z" agent="Mozilla/5.0 (Windows NT 10.0; Win64; x64) AppleWebKit/537.36 (KHTML, like Gecko) Chrome/115.0.0.0 Safari/537.36 Edg/115.0.1901.188" etag="MC9WlXX2pD5TVP0c4JCJ" version="21.6.6" type="device">
  <diagram name="Side-1" id="KbJh39d-KwXBvmXVzboY">
    <mxGraphModel dx="1379" dy="764" grid="1" gridSize="10" guides="1" tooltips="1" connect="1" arrows="1" fold="1" page="1" pageScale="1" pageWidth="1654" pageHeight="1169" math="0" shadow="0">
      <root>
        <mxCell id="0" />
        <mxCell id="1" parent="0" />
        <mxCell id="q-lAT9CuuWQ3pqra6OLG-17" value="" style="rounded=0;whiteSpace=wrap;html=1;dashed=1;dashPattern=12 12;" parent="1" vertex="1">
          <mxGeometry x="1260" y="190" width="370" height="350" as="geometry" />
        </mxCell>
        <mxCell id="Blhn78dDBQCdhf2HybfN-1" value="Run" style="triangle;whiteSpace=wrap;html=1;" parent="1" vertex="1">
          <mxGeometry x="220" y="240" width="60" height="80" as="geometry" />
        </mxCell>
        <mxCell id="Blhn78dDBQCdhf2HybfN-6" value="" style="edgeStyle=orthogonalEdgeStyle;rounded=0;orthogonalLoop=1;jettySize=auto;html=1;exitX=1;exitY=0.5;exitDx=0;exitDy=0;" parent="1" source="Blhn78dDBQCdhf2HybfN-1" target="Blhn78dDBQCdhf2HybfN-5" edge="1">
          <mxGeometry relative="1" as="geometry">
            <mxPoint x="260" y="280" as="sourcePoint" />
          </mxGeometry>
        </mxCell>
        <mxCell id="Blhn78dDBQCdhf2HybfN-8" value="" style="edgeStyle=orthogonalEdgeStyle;rounded=0;orthogonalLoop=1;jettySize=auto;html=1;" parent="1" source="Blhn78dDBQCdhf2HybfN-5" target="Blhn78dDBQCdhf2HybfN-7" edge="1">
          <mxGeometry relative="1" as="geometry" />
        </mxCell>
        <mxCell id="Blhn78dDBQCdhf2HybfN-5" value="Poll triggers" style="rounded=1;whiteSpace=wrap;html=1;" parent="1" vertex="1">
          <mxGeometry x="340" y="250" width="120" height="60" as="geometry" />
        </mxCell>
        <mxCell id="Blhn78dDBQCdhf2HybfN-15" value="" style="edgeStyle=orthogonalEdgeStyle;rounded=0;orthogonalLoop=1;jettySize=auto;html=1;entryX=0;entryY=0.5;entryDx=0;entryDy=0;" parent="1" source="Blhn78dDBQCdhf2HybfN-7" target="q-lAT9CuuWQ3pqra6OLG-37" edge="1">
          <mxGeometry relative="1" as="geometry">
            <mxPoint x="660" y="280" as="targetPoint" />
          </mxGeometry>
        </mxCell>
        <mxCell id="Blhn78dDBQCdhf2HybfN-28" value="Yes" style="edgeLabel;html=1;align=center;verticalAlign=middle;resizable=0;points=[];" parent="Blhn78dDBQCdhf2HybfN-15" vertex="1" connectable="0">
          <mxGeometry x="-0.5755" y="-3" relative="1" as="geometry">
            <mxPoint x="17" y="-3" as="offset" />
          </mxGeometry>
        </mxCell>
        <mxCell id="Blhn78dDBQCdhf2HybfN-17" style="edgeStyle=orthogonalEdgeStyle;rounded=0;orthogonalLoop=1;jettySize=auto;html=1;exitX=0.5;exitY=1;exitDx=0;exitDy=0;entryX=0.5;entryY=0;entryDx=0;entryDy=0;" parent="1" source="Blhn78dDBQCdhf2HybfN-7" target="Blhn78dDBQCdhf2HybfN-11" edge="1">
          <mxGeometry relative="1" as="geometry" />
        </mxCell>
        <mxCell id="Blhn78dDBQCdhf2HybfN-27" value="No" style="edgeLabel;html=1;align=center;verticalAlign=middle;resizable=0;points=[];" parent="Blhn78dDBQCdhf2HybfN-17" vertex="1" connectable="0">
          <mxGeometry x="-0.125" relative="1" as="geometry">
            <mxPoint y="-54" as="offset" />
          </mxGeometry>
        </mxCell>
        <mxCell id="Blhn78dDBQCdhf2HybfN-7" value="Is trigger?" style="rhombus;whiteSpace=wrap;html=1;rounded=1;arcSize=0;" parent="1" vertex="1">
          <mxGeometry x="520" y="240" width="80" height="80" as="geometry" />
        </mxCell>
        <mxCell id="Blhn78dDBQCdhf2HybfN-21" value="" style="edgeStyle=orthogonalEdgeStyle;rounded=0;orthogonalLoop=1;jettySize=auto;html=1;" parent="1" source="Blhn78dDBQCdhf2HybfN-11" target="Blhn78dDBQCdhf2HybfN-20" edge="1">
          <mxGeometry relative="1" as="geometry" />
        </mxCell>
        <mxCell id="Blhn78dDBQCdhf2HybfN-11" value="Sleep" style="whiteSpace=wrap;html=1;rounded=1;" parent="1" vertex="1">
          <mxGeometry x="500" y="490" width="120" height="60" as="geometry" />
        </mxCell>
        <mxCell id="q-lAT9CuuWQ3pqra6OLG-32" value="" style="edgeStyle=orthogonalEdgeStyle;rounded=0;orthogonalLoop=1;jettySize=auto;html=1;" parent="1" source="Blhn78dDBQCdhf2HybfN-20" target="Blhn78dDBQCdhf2HybfN-23" edge="1">
          <mxGeometry relative="1" as="geometry" />
        </mxCell>
        <mxCell id="Blhn78dDBQCdhf2HybfN-20" value="Check heartbeats" style="whiteSpace=wrap;html=1;rounded=1;" parent="1" vertex="1">
          <mxGeometry x="340" y="490" width="120" height="60" as="geometry" />
        </mxCell>
        <mxCell id="q-lAT9CuuWQ3pqra6OLG-33" style="edgeStyle=orthogonalEdgeStyle;rounded=0;orthogonalLoop=1;jettySize=auto;html=1;exitX=0.5;exitY=0;exitDx=0;exitDy=0;entryX=0.5;entryY=1;entryDx=0;entryDy=0;" parent="1" source="Blhn78dDBQCdhf2HybfN-23" target="Blhn78dDBQCdhf2HybfN-5" edge="1">
          <mxGeometry relative="1" as="geometry" />
        </mxCell>
        <mxCell id="q-lAT9CuuWQ3pqra6OLG-36" value="No" style="edgeLabel;html=1;align=center;verticalAlign=middle;resizable=0;points=[];" parent="q-lAT9CuuWQ3pqra6OLG-33" vertex="1" connectable="0">
          <mxGeometry x="-0.0138" y="-2" relative="1" as="geometry">
            <mxPoint x="-2" as="offset" />
          </mxGeometry>
        </mxCell>
        <mxCell id="q-lAT9CuuWQ3pqra6OLG-34" style="edgeStyle=orthogonalEdgeStyle;rounded=0;orthogonalLoop=1;jettySize=auto;html=1;entryX=0.5;entryY=0;entryDx=0;entryDy=0;" parent="1" source="Blhn78dDBQCdhf2HybfN-23" target="Blhn78dDBQCdhf2HybfN-11" edge="1">
          <mxGeometry relative="1" as="geometry" />
        </mxCell>
        <mxCell id="q-lAT9CuuWQ3pqra6OLG-35" value="Yes" style="edgeLabel;html=1;align=center;verticalAlign=middle;resizable=0;points=[];" parent="q-lAT9CuuWQ3pqra6OLG-34" vertex="1" connectable="0">
          <mxGeometry x="-0.6213" relative="1" as="geometry">
            <mxPoint as="offset" />
          </mxGeometry>
        </mxCell>
        <mxCell id="Blhn78dDBQCdhf2HybfN-23" value="Is blocking process running?" style="rhombus;whiteSpace=wrap;html=1;fontSize=10;spacing=8;" parent="1" vertex="1">
          <mxGeometry x="360" y="360" width="80" height="80" as="geometry" />
        </mxCell>
        <mxCell id="Blhn78dDBQCdhf2HybfN-50" value="Single &amp;gt; email &amp;gt; scheduled" style="text;html=1;strokeColor=default;fillColor=none;align=center;verticalAlign=middle;whiteSpace=wrap;rounded=0;" parent="1" vertex="1">
          <mxGeometry x="480" y="200" width="170" height="30" as="geometry" />
        </mxCell>
        <mxCell id="q-lAT9CuuWQ3pqra6OLG-24" style="edgeStyle=orthogonalEdgeStyle;rounded=0;orthogonalLoop=1;jettySize=auto;html=1;exitX=1;exitY=0.5;exitDx=0;exitDy=0;entryX=0;entryY=0.5;entryDx=0;entryDy=0;dashed=1;" parent="1" source="q-lAT9CuuWQ3pqra6OLG-21" target="Blhn78dDBQCdhf2HybfN-24" edge="1">
          <mxGeometry relative="1" as="geometry" />
        </mxCell>
        <mxCell id="q-lAT9CuuWQ3pqra6OLG-25" style="edgeStyle=orthogonalEdgeStyle;rounded=0;orthogonalLoop=1;jettySize=auto;html=1;exitX=0.5;exitY=1;exitDx=0;exitDy=0;entryX=1;entryY=0.5;entryDx=0;entryDy=0;dashed=1;" parent="1" source="q-lAT9CuuWQ3pqra6OLG-21" target="Blhn78dDBQCdhf2HybfN-11" edge="1">
          <mxGeometry relative="1" as="geometry" />
        </mxCell>
        <mxCell id="q-lAT9CuuWQ3pqra6OLG-21" value="Spawn new thread" style="ellipse;whiteSpace=wrap;html=1;" parent="1" vertex="1">
          <mxGeometry x="1100" y="240" width="120" height="80" as="geometry" />
        </mxCell>
        <mxCell id="q-lAT9CuuWQ3pqra6OLG-39" value="" style="edgeStyle=orthogonalEdgeStyle;rounded=0;orthogonalLoop=1;jettySize=auto;html=1;" parent="1" source="q-lAT9CuuWQ3pqra6OLG-37" target="q-lAT9CuuWQ3pqra6OLG-38" edge="1">
          <mxGeometry relative="1" as="geometry" />
        </mxCell>
        <mxCell id="RROuJSbq-3zFuny9Qt4i-5" value="Yes" style="edgeLabel;html=1;align=center;verticalAlign=middle;resizable=0;points=[];" parent="q-lAT9CuuWQ3pqra6OLG-39" vertex="1" connectable="0">
          <mxGeometry x="-0.0167" y="3" relative="1" as="geometry">
            <mxPoint x="-3" y="-4" as="offset" />
          </mxGeometry>
        </mxCell>
        <mxCell id="q-lAT9CuuWQ3pqra6OLG-40" style="edgeStyle=orthogonalEdgeStyle;rounded=0;orthogonalLoop=1;jettySize=auto;html=1;exitX=1;exitY=0.5;exitDx=0;exitDy=0;entryX=0;entryY=0.5;entryDx=0;entryDy=0;" parent="1" source="q-lAT9CuuWQ3pqra6OLG-37" target="RROuJSbq-3zFuny9Qt4i-39" edge="1">
          <mxGeometry relative="1" as="geometry" />
        </mxCell>
        <mxCell id="RROuJSbq-3zFuny9Qt4i-4" value="No" style="edgeLabel;html=1;align=center;verticalAlign=middle;resizable=0;points=[];" parent="q-lAT9CuuWQ3pqra6OLG-40" vertex="1" connectable="0">
          <mxGeometry x="-0.6333" y="1" relative="1" as="geometry">
            <mxPoint x="2" y="1" as="offset" />
          </mxGeometry>
        </mxCell>
        <mxCell id="q-lAT9CuuWQ3pqra6OLG-37" value="Is blocking?" style="rhombus;whiteSpace=wrap;html=1;" parent="1" vertex="1">
          <mxGeometry x="700" y="240" width="80" height="80" as="geometry" />
        </mxCell>
        <mxCell id="q-lAT9CuuWQ3pqra6OLG-41" style="edgeStyle=orthogonalEdgeStyle;rounded=0;orthogonalLoop=1;jettySize=auto;html=1;exitX=0.5;exitY=1;exitDx=0;exitDy=0;entryX=1;entryY=0.25;entryDx=0;entryDy=0;" parent="1" source="q-lAT9CuuWQ3pqra6OLG-38" target="Blhn78dDBQCdhf2HybfN-11" edge="1">
          <mxGeometry relative="1" as="geometry" />
        </mxCell>
        <mxCell id="RROuJSbq-3zFuny9Qt4i-6" value="Yes" style="edgeLabel;html=1;align=center;verticalAlign=middle;resizable=0;points=[];" parent="q-lAT9CuuWQ3pqra6OLG-41" vertex="1" connectable="0">
          <mxGeometry x="-0.6162" y="-1" relative="1" as="geometry">
            <mxPoint x="1" y="-3" as="offset" />
          </mxGeometry>
        </mxCell>
        <mxCell id="q-lAT9CuuWQ3pqra6OLG-42" style="edgeStyle=orthogonalEdgeStyle;rounded=0;orthogonalLoop=1;jettySize=auto;html=1;exitX=1;exitY=0.5;exitDx=0;exitDy=0;entryX=0;entryY=0.5;entryDx=0;entryDy=0;" parent="1" source="q-lAT9CuuWQ3pqra6OLG-38" target="RROuJSbq-3zFuny9Qt4i-39" edge="1">
          <mxGeometry relative="1" as="geometry">
            <Array as="points">
              <mxPoint x="870" y="400" />
              <mxPoint x="870" y="280" />
              <mxPoint x="900" y="280" />
            </Array>
          </mxGeometry>
        </mxCell>
        <mxCell id="RROuJSbq-3zFuny9Qt4i-3" value="No" style="edgeLabel;html=1;align=center;verticalAlign=middle;resizable=0;points=[];" parent="q-lAT9CuuWQ3pqra6OLG-42" vertex="1" connectable="0">
          <mxGeometry x="-0.6972" y="-1" relative="1" as="geometry">
            <mxPoint x="-7" y="-1" as="offset" />
          </mxGeometry>
        </mxCell>
        <mxCell id="q-lAT9CuuWQ3pqra6OLG-38" value="Is other process running?" style="rhombus;whiteSpace=wrap;html=1;spacing=8;fontSize=11;" parent="1" vertex="1">
          <mxGeometry x="700" y="360" width="80" height="80" as="geometry" />
        </mxCell>
        <mxCell id="Blhn78dDBQCdhf2HybfN-24" value="Is Repo?" style="rhombus;whiteSpace=wrap;html=1;" parent="1" vertex="1">
          <mxGeometry x="1330" y="240" width="80" height="80" as="geometry" />
        </mxCell>
        <mxCell id="Blhn78dDBQCdhf2HybfN-40" value="Pull repo" style="rounded=1;whiteSpace=wrap;html=1;" parent="1" vertex="1">
          <mxGeometry x="1470" y="250" width="120" height="60" as="geometry" />
        </mxCell>
        <mxCell id="Blhn78dDBQCdhf2HybfN-41" value="" style="edgeStyle=orthogonalEdgeStyle;rounded=0;orthogonalLoop=1;jettySize=auto;html=1;" parent="1" source="Blhn78dDBQCdhf2HybfN-24" target="Blhn78dDBQCdhf2HybfN-40" edge="1">
          <mxGeometry relative="1" as="geometry" />
        </mxCell>
        <mxCell id="q-lAT9CuuWQ3pqra6OLG-2" value="Yes" style="edgeLabel;html=1;align=center;verticalAlign=middle;resizable=0;points=[];" parent="Blhn78dDBQCdhf2HybfN-41" vertex="1" connectable="0">
          <mxGeometry x="-0.2667" relative="1" as="geometry">
            <mxPoint as="offset" />
          </mxGeometry>
        </mxCell>
        <mxCell id="Blhn78dDBQCdhf2HybfN-48" value="Run file at path" style="whiteSpace=wrap;html=1;rounded=1;" parent="1" vertex="1">
          <mxGeometry x="1310" y="360" width="120" height="60" as="geometry" />
        </mxCell>
        <mxCell id="Blhn78dDBQCdhf2HybfN-34" value="" style="edgeStyle=orthogonalEdgeStyle;rounded=0;orthogonalLoop=1;jettySize=auto;html=1;entryX=0.5;entryY=0;entryDx=0;entryDy=0;" parent="1" source="Blhn78dDBQCdhf2HybfN-24" target="Blhn78dDBQCdhf2HybfN-48" edge="1">
          <mxGeometry relative="1" as="geometry">
            <mxPoint x="1370" y="400" as="targetPoint" />
          </mxGeometry>
        </mxCell>
        <mxCell id="q-lAT9CuuWQ3pqra6OLG-1" value="No" style="edgeLabel;html=1;align=center;verticalAlign=middle;resizable=0;points=[];" parent="Blhn78dDBQCdhf2HybfN-34" vertex="1" connectable="0">
          <mxGeometry x="-0.6" relative="1" as="geometry">
            <mxPoint as="offset" />
          </mxGeometry>
        </mxCell>
        <mxCell id="RROuJSbq-3zFuny9Qt4i-2" value="" style="edgeStyle=orthogonalEdgeStyle;rounded=0;orthogonalLoop=1;jettySize=auto;html=1;" parent="1" source="q-lAT9CuuWQ3pqra6OLG-14" target="RROuJSbq-3zFuny9Qt4i-1" edge="1">
          <mxGeometry relative="1" as="geometry" />
        </mxCell>
        <mxCell id="q-lAT9CuuWQ3pqra6OLG-14" value="Run main.*" style="rounded=1;whiteSpace=wrap;html=1;" parent="1" vertex="1">
          <mxGeometry x="1470" y="360" width="120" height="60" as="geometry" />
        </mxCell>
        <mxCell id="q-lAT9CuuWQ3pqra6OLG-15" value="" style="edgeStyle=orthogonalEdgeStyle;rounded=0;orthogonalLoop=1;jettySize=auto;html=1;" parent="1" source="Blhn78dDBQCdhf2HybfN-40" target="q-lAT9CuuWQ3pqra6OLG-14" edge="1">
          <mxGeometry relative="1" as="geometry" />
        </mxCell>
        <mxCell id="q-lAT9CuuWQ3pqra6OLG-18" value="New Thread" style="text;html=1;align=center;verticalAlign=middle;resizable=0;points=[];autosize=1;strokeColor=none;fillColor=none;" parent="1" vertex="1">
          <mxGeometry x="1400" y="200" width="90" height="30" as="geometry" />
        </mxCell>
        <mxCell id="RROuJSbq-3zFuny9Qt4i-1" value="Delete Repo" style="rounded=1;whiteSpace=wrap;html=1;" parent="1" vertex="1">
          <mxGeometry x="1470" y="460" width="120" height="60" as="geometry" />
        </mxCell>
        <mxCell id="RROuJSbq-3zFuny9Qt4i-9" value="" style="edgeStyle=orthogonalEdgeStyle;rounded=0;orthogonalLoop=1;jettySize=auto;html=1;entryX=0;entryY=0.5;entryDx=0;entryDy=0;" parent="1" source="RROuJSbq-3zFuny9Qt4i-7" target="RROuJSbq-3zFuny9Qt4i-10" edge="1">
          <mxGeometry relative="1" as="geometry">
            <mxPoint x="390" y="813.0000000000002" as="targetPoint" />
          </mxGeometry>
        </mxCell>
        <mxCell id="RROuJSbq-3zFuny9Qt4i-7" value="Poll triggers" style="triangle;whiteSpace=wrap;html=1;spacing=5;fontSize=9;" parent="1" vertex="1">
          <mxGeometry x="280" y="773" width="60" height="80" as="geometry" />
        </mxCell>
        <mxCell id="RROuJSbq-3zFuny9Qt4i-12" style="edgeStyle=orthogonalEdgeStyle;rounded=0;orthogonalLoop=1;jettySize=auto;html=1;exitX=1;exitY=0.5;exitDx=0;exitDy=0;entryX=0;entryY=0.5;entryDx=0;entryDy=0;" parent="1" source="RROuJSbq-3zFuny9Qt4i-10" target="RROuJSbq-3zFuny9Qt4i-11" edge="1">
          <mxGeometry relative="1" as="geometry" />
        </mxCell>
        <mxCell id="RROuJSbq-3zFuny9Qt4i-10" value="Poll single triggers" style="rounded=1;whiteSpace=wrap;html=1;" parent="1" vertex="1">
          <mxGeometry x="390" y="783" width="120" height="60" as="geometry" />
        </mxCell>
        <mxCell id="RROuJSbq-3zFuny9Qt4i-14" style="edgeStyle=orthogonalEdgeStyle;rounded=0;orthogonalLoop=1;jettySize=auto;html=1;exitX=0.5;exitY=1;exitDx=0;exitDy=0;entryX=0.5;entryY=0;entryDx=0;entryDy=0;" parent="1" source="RROuJSbq-3zFuny9Qt4i-11" target="RROuJSbq-3zFuny9Qt4i-27" edge="1">
          <mxGeometry relative="1" as="geometry">
            <mxPoint x="1010" y="1023.0000000000002" as="targetPoint" />
            <Array as="points">
              <mxPoint x="600" y="1013" />
              <mxPoint x="1010" y="1013" />
            </Array>
          </mxGeometry>
        </mxCell>
        <mxCell id="RROuJSbq-3zFuny9Qt4i-34" value="Yes" style="edgeLabel;html=1;align=center;verticalAlign=middle;resizable=0;points=[];" parent="RROuJSbq-3zFuny9Qt4i-14" vertex="1" connectable="0">
          <mxGeometry x="-0.9031" y="1" relative="1" as="geometry">
            <mxPoint as="offset" />
          </mxGeometry>
        </mxCell>
        <mxCell id="RROuJSbq-3zFuny9Qt4i-16" value="" style="edgeStyle=orthogonalEdgeStyle;rounded=0;orthogonalLoop=1;jettySize=auto;html=1;entryX=0;entryY=0.5;entryDx=0;entryDy=0;" parent="1" source="RROuJSbq-3zFuny9Qt4i-11" target="RROuJSbq-3zFuny9Qt4i-17" edge="1">
          <mxGeometry relative="1" as="geometry">
            <mxPoint x="700" y="813.0000000000002" as="targetPoint" />
          </mxGeometry>
        </mxCell>
        <mxCell id="RROuJSbq-3zFuny9Qt4i-35" value="No" style="edgeLabel;html=1;align=center;verticalAlign=middle;resizable=0;points=[];" parent="RROuJSbq-3zFuny9Qt4i-16" vertex="1" connectable="0">
          <mxGeometry x="-0.2394" y="-1" relative="1" as="geometry">
            <mxPoint as="offset" />
          </mxGeometry>
        </mxCell>
        <mxCell id="RROuJSbq-3zFuny9Qt4i-11" value="Is trigger?" style="rhombus;whiteSpace=wrap;html=1;" parent="1" vertex="1">
          <mxGeometry x="560" y="773" width="80" height="80" as="geometry" />
        </mxCell>
        <mxCell id="RROuJSbq-3zFuny9Qt4i-19" style="edgeStyle=orthogonalEdgeStyle;rounded=0;orthogonalLoop=1;jettySize=auto;html=1;exitX=1;exitY=0.5;exitDx=0;exitDy=0;" parent="1" source="RROuJSbq-3zFuny9Qt4i-17" target="RROuJSbq-3zFuny9Qt4i-18" edge="1">
          <mxGeometry relative="1" as="geometry" />
        </mxCell>
        <mxCell id="RROuJSbq-3zFuny9Qt4i-17" value="Poll email triggers" style="rounded=1;whiteSpace=wrap;html=1;glass=0;shadow=0;" parent="1" vertex="1">
          <mxGeometry x="710" y="783" width="120" height="60" as="geometry" />
        </mxCell>
        <mxCell id="RROuJSbq-3zFuny9Qt4i-21" style="edgeStyle=orthogonalEdgeStyle;rounded=0;orthogonalLoop=1;jettySize=auto;html=1;exitX=1;exitY=0.5;exitDx=0;exitDy=0;entryX=0;entryY=0.5;entryDx=0;entryDy=0;" parent="1" source="RROuJSbq-3zFuny9Qt4i-18" target="RROuJSbq-3zFuny9Qt4i-20" edge="1">
          <mxGeometry relative="1" as="geometry" />
        </mxCell>
        <mxCell id="RROuJSbq-3zFuny9Qt4i-18" value="Check email" style="rounded=1;whiteSpace=wrap;html=1;" parent="1" vertex="1">
          <mxGeometry x="870" y="783" width="120" height="60" as="geometry" />
        </mxCell>
        <mxCell id="RROuJSbq-3zFuny9Qt4i-23" style="edgeStyle=orthogonalEdgeStyle;rounded=0;orthogonalLoop=1;jettySize=auto;html=1;exitX=0.5;exitY=1;exitDx=0;exitDy=0;entryX=0.5;entryY=0;entryDx=0;entryDy=0;" parent="1" source="RROuJSbq-3zFuny9Qt4i-20" target="RROuJSbq-3zFuny9Qt4i-22" edge="1">
          <mxGeometry relative="1" as="geometry" />
        </mxCell>
        <mxCell id="RROuJSbq-3zFuny9Qt4i-37" value="Yes" style="edgeLabel;html=1;align=center;verticalAlign=middle;resizable=0;points=[];" parent="RROuJSbq-3zFuny9Qt4i-23" vertex="1" connectable="0">
          <mxGeometry x="-0.5014" relative="1" as="geometry">
            <mxPoint y="6" as="offset" />
          </mxGeometry>
        </mxCell>
        <mxCell id="RROuJSbq-3zFuny9Qt4i-26" style="edgeStyle=orthogonalEdgeStyle;rounded=0;orthogonalLoop=1;jettySize=auto;html=1;exitX=1;exitY=0.5;exitDx=0;exitDy=0;" parent="1" source="RROuJSbq-3zFuny9Qt4i-20" target="RROuJSbq-3zFuny9Qt4i-25" edge="1">
          <mxGeometry relative="1" as="geometry" />
        </mxCell>
        <mxCell id="RROuJSbq-3zFuny9Qt4i-36" value="No" style="edgeLabel;html=1;align=center;verticalAlign=middle;resizable=0;points=[];" parent="RROuJSbq-3zFuny9Qt4i-26" vertex="1" connectable="0">
          <mxGeometry x="-0.1113" y="-1" relative="1" as="geometry">
            <mxPoint as="offset" />
          </mxGeometry>
        </mxCell>
        <mxCell id="RROuJSbq-3zFuny9Qt4i-20" value="Is new email?" style="rhombus;whiteSpace=wrap;html=1;fontSize=10;" parent="1" vertex="1">
          <mxGeometry x="1030" y="773" width="80" height="80" as="geometry" />
        </mxCell>
        <mxCell id="RROuJSbq-3zFuny9Qt4i-24" style="edgeStyle=orthogonalEdgeStyle;rounded=0;orthogonalLoop=1;jettySize=auto;html=1;exitX=0.5;exitY=1;exitDx=0;exitDy=0;entryX=0.5;entryY=0;entryDx=0;entryDy=0;" parent="1" source="RROuJSbq-3zFuny9Qt4i-22" target="RROuJSbq-3zFuny9Qt4i-27" edge="1">
          <mxGeometry relative="1" as="geometry">
            <mxPoint x="1010" y="1023.0000000000002" as="targetPoint" />
            <Array as="points">
              <mxPoint x="1070" y="1013" />
              <mxPoint x="1010" y="1013" />
            </Array>
          </mxGeometry>
        </mxCell>
        <mxCell id="RROuJSbq-3zFuny9Qt4i-22" value="Mark as email read" style="rounded=1;whiteSpace=wrap;html=1;" parent="1" vertex="1">
          <mxGeometry x="1010" y="893" width="120" height="60" as="geometry" />
        </mxCell>
        <mxCell id="RROuJSbq-3zFuny9Qt4i-31" value="" style="edgeStyle=orthogonalEdgeStyle;rounded=0;orthogonalLoop=1;jettySize=auto;html=1;" parent="1" source="RROuJSbq-3zFuny9Qt4i-25" target="RROuJSbq-3zFuny9Qt4i-30" edge="1">
          <mxGeometry relative="1" as="geometry" />
        </mxCell>
        <mxCell id="RROuJSbq-3zFuny9Qt4i-25" value="Poll scheduled trigger" style="rounded=1;whiteSpace=wrap;html=1;" parent="1" vertex="1">
          <mxGeometry x="1180" y="783" width="120" height="60" as="geometry" />
        </mxCell>
        <mxCell id="RROuJSbq-3zFuny9Qt4i-27" value="Run" style="rounded=1;whiteSpace=wrap;html=1;" parent="1" vertex="1">
          <mxGeometry x="950" y="1053" width="120" height="60" as="geometry" />
        </mxCell>
        <mxCell id="RROuJSbq-3zFuny9Qt4i-29" value="Does mail sync fast enough?" style="shape=callout;whiteSpace=wrap;html=1;perimeter=calloutPerimeter;base=20;rotation=-90;size=30;position=0.42;dashed=1;rounded=1;" parent="1" vertex="1">
          <mxGeometry x="901" y="878" width="120" height="90" as="geometry" />
        </mxCell>
        <mxCell id="RROuJSbq-3zFuny9Qt4i-32" style="edgeStyle=orthogonalEdgeStyle;rounded=0;orthogonalLoop=1;jettySize=auto;html=1;exitX=0.5;exitY=1;exitDx=0;exitDy=0;entryX=0.5;entryY=0;entryDx=0;entryDy=0;" parent="1" source="RROuJSbq-3zFuny9Qt4i-30" target="RROuJSbq-3zFuny9Qt4i-27" edge="1">
          <mxGeometry relative="1" as="geometry">
            <mxPoint x="1010" y="1023" as="targetPoint" />
            <Array as="points">
              <mxPoint x="1380" y="1013" />
              <mxPoint x="1010" y="1013" />
            </Array>
          </mxGeometry>
        </mxCell>
        <mxCell id="RROuJSbq-3zFuny9Qt4i-33" value="Yes" style="edgeLabel;html=1;align=center;verticalAlign=middle;resizable=0;points=[];" parent="RROuJSbq-3zFuny9Qt4i-32" vertex="1" connectable="0">
          <mxGeometry x="-0.855" relative="1" as="geometry">
            <mxPoint as="offset" />
          </mxGeometry>
        </mxCell>
        <mxCell id="RROuJSbq-3zFuny9Qt4i-30" value="Is trigger?" style="rhombus;whiteSpace=wrap;html=1;rounded=1;arcSize=0;" parent="1" vertex="1">
          <mxGeometry x="1340" y="773" width="80" height="80" as="geometry" />
        </mxCell>
        <mxCell id="RROuJSbq-3zFuny9Qt4i-38" value="Race conditions?" style="shape=callout;whiteSpace=wrap;html=1;perimeter=calloutPerimeter;dashed=1;rounded=1;" parent="1" vertex="1">
          <mxGeometry x="250" y="703" width="120" height="80" as="geometry" />
        </mxCell>
        <mxCell id="RROuJSbq-3zFuny9Qt4i-40" style="edgeStyle=orthogonalEdgeStyle;rounded=0;orthogonalLoop=1;jettySize=auto;html=1;exitX=1;exitY=0.5;exitDx=0;exitDy=0;" parent="1" source="RROuJSbq-3zFuny9Qt4i-39" target="q-lAT9CuuWQ3pqra6OLG-21" edge="1">
          <mxGeometry relative="1" as="geometry" />
        </mxCell>
        <mxCell id="RROuJSbq-3zFuny9Qt4i-39" value="Mark trigger as running" style="rounded=1;whiteSpace=wrap;html=1;" parent="1" vertex="1">
          <mxGeometry x="920" y="250" width="120" height="60" as="geometry" />
        </mxCell>
        <mxCell id="RROuJSbq-3zFuny9Qt4i-41" value="Email bad!" style="shape=callout;whiteSpace=wrap;html=1;perimeter=calloutPerimeter;dashed=1;rounded=1;" parent="1" vertex="1">
          <mxGeometry x="870" y="700" width="120" height="80" as="geometry" />
        </mxCell>
      </root>
    </mxGraphModel>
  </diagram>
</mxfile>
